<svg id="visual" viewBox="0 0 900 600" width="900" height="600" xmlns="http://www.w3.org/2000/svg" xmlns:xlink="http://www.w3.org/1999/xlink" version="1.1"><path d="M0 163L16.7 161C33.3 159 66.7 155 100 146C133.3 137 166.7 123 200 124C233.3 125 266.7 141 300 136C333.3 131 366.7 105 400 89C433.3 73 466.7 67 500 77C533.3 87 566.7 113 600 113C633.3 113 666.7 87 700 83C733.3 79 766.7 97 800 112C833.3 127 866.7 139 883.3 145L900 151L900 0L883.3 0C866.7 0 833.3 0 800 0C766.7 0 733.3 0 700 0C666.7 0 633.3 0 600 0C566.7 0 533.3 0 500 0C466.7 0 433.3 0 400 0C366.7 0 333.3 0 300 0C266.7 0 233.3 0 200 0C166.7 0 133.3 0 100 0C66.7 0 33.3 0 16.7 0L0 0Z" fill="#6198ff"></path><path d="M0 211L16.7 211C33.3 211 66.7 211 100 211C133.3 211 166.7 211 200 209C233.3 207 266.7 203 300 194C333.3 185 366.7 171 400 157C433.3 143 466.7 129 500 136C533.3 143 566.7 171 600 171C633.3 171 666.7 143 700 141C733.3 139 766.7 163 800 181C833.3 199 866.7 211 883.3 217L900 223L900 149L883.3 143C866.7 137 833.3 125 800 110C766.7 95 733.3 77 700 81C666.7 85 633.3 111 600 111C566.7 111 533.3 85 500 75C466.7 65 433.3 71 400 87C366.7 103 333.3 129 300 134C266.7 139 233.3 123 200 122C166.7 121 133.3 135 100 144C66.7 153 33.3 157 16.7 159L0 161Z" fill="#3c80ff"></path><path d="M0 289L16.7 285C33.3 281 66.7 273 100 273C133.3 273 166.7 281 200 290C233.3 299 266.7 309 300 305C333.3 301 366.7 283 400 268C433.3 253 466.7 241 500 251C533.3 261 566.7 293 600 292C633.3 291 666.7 257 700 241C733.3 225 766.7 227 800 245C833.3 263 866.7 297 883.3 314L900 331L900 221L883.3 215C866.7 209 833.3 197 800 179C766.7 161 733.3 137 700 139C666.7 141 633.3 169 600 169C566.7 169 533.3 141 500 134C466.7 127 433.3 141 400 155C366.7 169 333.3 183 300 192C266.7 201 233.3 205 200 207C166.7 209 133.3 209 100 209C66.7 209 33.3 209 16.7 209L0 209Z" fill="#0066ff"></path><path d="M0 499L16.7 494C33.3 489 66.7 479 100 475C133.3 471 166.7 473 200 475C233.3 477 266.7 479 300 479C333.3 479 366.7 477 400 468C433.3 459 466.7 443 500 444C533.3 445 566.7 463 600 458C633.3 453 666.7 425 700 430C733.3 435 766.7 473 800 484C833.3 495 866.7 479 883.3 471L900 463L900 329L883.3 312C866.7 295 833.3 261 800 243C766.7 225 733.3 223 700 239C666.7 255 633.3 289 600 290C566.7 291 533.3 259 500 249C466.7 239 433.3 251 400 266C366.7 281 333.3 299 300 303C266.7 307 233.3 297 200 288C166.7 279 133.3 271 100 271C66.7 271 33.3 279 16.7 283L0 287Z" fill="#0059dd"></path><path d="M0 601L16.7 601C33.3 601 66.7 601 100 601C133.3 601 166.7 601 200 601C233.3 601 266.7 601 300 601C333.3 601 366.7 601 400 601C433.3 601 466.7 601 500 601C533.3 601 566.7 601 600 601C633.3 601 666.7 601 700 601C733.3 601 766.7 601 800 601C833.3 601 866.7 601 883.3 601L900 601L900 461L883.3 469C866.7 477 833.3 493 800 482C766.7 471 733.3 433 700 428C666.7 423 633.3 451 600 456C566.7 461 533.3 443 500 442C466.7 441 433.3 457 400 466C366.7 475 333.3 477 300 477C266.7 477 233.3 475 200 473C166.7 471 133.3 469 100 473C66.7 477 33.3 487 16.7 492L0 497Z" fill="#004cbb"></path></svg>